# xmcd
#
# Track frame offsets: 
#        150
#        13231
#        31040
#        49733
#        67113
#        82671
#        102358
#        119643
#        138631
#        151603
#
# Disc length: 2159 seconds
#
# Revision: 0
# Processed by: cddbd v1.5.2PL0 Copyright (c) Steve Scherf et al.
# Submitted via: ExactAudioCopyFreeDBPlugin 1.0
#
DISCID=7c086d0a
DTITLE=Luke Blu Guthrie - Luke Blu Guthrie
DYEAR=2013
DGENRE=Blues
TTITLE0=sleeping
TTITLE1=will I ever learn
TTITLE2=hounds tooth jacket
TTITLE3=dusk road rose
TTITLE4=nobody knows the truth 
TTITLE5=warning light 
TTITLE6=bumblebee
TTITLE7=hero
TTITLE8=here today gone tomorrow
TTITLE9=get that stump out my yard
EXTD=
EXTT0=
EXTT1=
EXTT2=
EXTT3=
EXTT4=
EXTT5=
EXTT6=
EXTT7=
EXTT8=
EXTT9=
PLAYORDER=
